<mxfile host="app.diagrams.net" modified="2024-07-11T06:54:15.586Z" agent="Mozilla/5.0 (Windows NT 10.0; Win64; x64) AppleWebKit/537.36 (KHTML, like Gecko) Chrome/124.0.0.0 YaBrowser/24.6.0.0 Safari/537.36" etag="uxcFCNa0b1D0p0kv-VAT" version="24.6.4" type="device">
  <diagram name="Страница — 1" id="Zbs949ND8atEfVqn_S7g">
    <mxGraphModel dx="1050" dy="663" grid="1" gridSize="10" guides="1" tooltips="1" connect="1" arrows="1" fold="1" page="1" pageScale="1" pageWidth="827" pageHeight="1169" math="0" shadow="0">
      <root>
        <mxCell id="0" />
        <mxCell id="1" parent="0" />
        <mxCell id="WdBLdnIgyOQIcF5jSsAp-1" value="" style="ellipse;whiteSpace=wrap;html=1;" vertex="1" parent="1">
          <mxGeometry x="346" y="60" width="104" height="60" as="geometry" />
        </mxCell>
        <mxCell id="WdBLdnIgyOQIcF5jSsAp-2" value="&lt;b&gt;&lt;font style=&quot;font-size: 14px;&quot;&gt;Start&lt;/font&gt;&lt;/b&gt;" style="text;html=1;align=center;verticalAlign=middle;whiteSpace=wrap;rounded=0;" vertex="1" parent="1">
          <mxGeometry x="368" y="75" width="60" height="30" as="geometry" />
        </mxCell>
        <mxCell id="WdBLdnIgyOQIcF5jSsAp-5" value="" style="endArrow=classic;html=1;rounded=0;" edge="1" parent="1">
          <mxGeometry width="50" height="50" relative="1" as="geometry">
            <mxPoint x="400" y="120" as="sourcePoint" />
            <mxPoint x="400" y="160" as="targetPoint" />
          </mxGeometry>
        </mxCell>
        <mxCell id="WdBLdnIgyOQIcF5jSsAp-6" value="" style="shape=parallelogram;perimeter=parallelogramPerimeter;whiteSpace=wrap;html=1;fixedSize=1;" vertex="1" parent="1">
          <mxGeometry x="318" y="160" width="160" height="60" as="geometry" />
        </mxCell>
        <mxCell id="WdBLdnIgyOQIcF5jSsAp-7" value="&lt;span style=&quot;font-size: 14px;&quot;&gt;&lt;b&gt;string[ ] array&lt;/b&gt;&lt;/span&gt;&lt;div&gt;&lt;span style=&quot;font-size: 14px;&quot;&gt;&lt;b&gt;string[ ] newArray&lt;/b&gt;&lt;/span&gt;&lt;/div&gt;&lt;div&gt;&lt;span style=&quot;font-size: 14px;&quot;&gt;&lt;b&gt;int count = 0&lt;/b&gt;&lt;/span&gt;&lt;/div&gt;" style="text;html=1;align=center;verticalAlign=middle;whiteSpace=wrap;rounded=0;" vertex="1" parent="1">
          <mxGeometry x="330" y="152.5" width="136" height="75" as="geometry" />
        </mxCell>
        <mxCell id="WdBLdnIgyOQIcF5jSsAp-8" value="" style="endArrow=classic;html=1;rounded=0;exitX=0.5;exitY=1;exitDx=0;exitDy=0;" edge="1" parent="1">
          <mxGeometry width="50" height="50" relative="1" as="geometry">
            <mxPoint x="400" y="221" as="sourcePoint" />
            <mxPoint x="400" y="274" as="targetPoint" />
          </mxGeometry>
        </mxCell>
        <mxCell id="WdBLdnIgyOQIcF5jSsAp-9" value="" style="shape=hexagon;perimeter=hexagonPerimeter2;whiteSpace=wrap;html=1;fixedSize=1;" vertex="1" parent="1">
          <mxGeometry x="300" y="274" width="200" height="80" as="geometry" />
        </mxCell>
        <mxCell id="WdBLdnIgyOQIcF5jSsAp-10" value="&lt;div style=&quot;font-family: Consolas, &amp;quot;Courier New&amp;quot;, monospace; font-size: 14px; line-height: 19px; white-space: pre;&quot;&gt;&lt;span style=&quot;background-color: rgb(255, 255, 255);&quot;&gt;&lt;b&gt;&amp;nbsp;for (int i = 0;&lt;/b&gt;&lt;/span&gt;&lt;/div&gt;&lt;div style=&quot;font-family: Consolas, &amp;quot;Courier New&amp;quot;, monospace; font-size: 14px; line-height: 19px; white-space: pre;&quot;&gt;&lt;span style=&quot;background-color: rgb(255, 255, 255);&quot;&gt;&lt;b&gt;i &amp;lt; array.Length; i++)&lt;/b&gt;&lt;/span&gt;&lt;/div&gt;" style="text;html=1;align=center;verticalAlign=middle;whiteSpace=wrap;rounded=0;" vertex="1" parent="1">
          <mxGeometry x="310" y="279" width="174" height="70" as="geometry" />
        </mxCell>
        <mxCell id="WdBLdnIgyOQIcF5jSsAp-18" value="&lt;div style=&quot;font-family: Consolas, &amp;quot;Courier New&amp;quot;, monospace; line-height: 19px; white-space: pre;&quot;&gt;&lt;span style=&quot;background-color: rgb(255, 255, 255);&quot;&gt;&lt;b style=&quot;&quot;&gt;&lt;font style=&quot;font-size: 14px;&quot;&gt;if(array[i].Length &amp;lt;= 3)&lt;/font&gt;&lt;/b&gt;&lt;/span&gt;&lt;/div&gt;" style="rhombus;whiteSpace=wrap;html=1;" vertex="1" parent="1">
          <mxGeometry x="287.5" y="409" width="225" height="100" as="geometry" />
        </mxCell>
        <mxCell id="WdBLdnIgyOQIcF5jSsAp-29" value="" style="endArrow=classic;html=1;rounded=0;entryX=0.5;entryY=0;entryDx=0;entryDy=0;" edge="1" parent="1" target="WdBLdnIgyOQIcF5jSsAp-18">
          <mxGeometry width="50" height="50" relative="1" as="geometry">
            <mxPoint x="400" y="354" as="sourcePoint" />
            <mxPoint x="425" y="359" as="targetPoint" />
          </mxGeometry>
        </mxCell>
        <mxCell id="WdBLdnIgyOQIcF5jSsAp-30" value="" style="endArrow=classic;html=1;rounded=0;edgeStyle=orthogonalEdgeStyle;entryX=1;entryY=0.5;entryDx=0;entryDy=0;" edge="1" parent="1" target="WdBLdnIgyOQIcF5jSsAp-9">
          <mxGeometry relative="1" as="geometry">
            <mxPoint x="513" y="459" as="sourcePoint" />
            <mxPoint x="600" y="320" as="targetPoint" />
            <Array as="points">
              <mxPoint x="513" y="460" />
              <mxPoint x="601" y="460" />
              <mxPoint x="601" y="314" />
            </Array>
          </mxGeometry>
        </mxCell>
        <mxCell id="WdBLdnIgyOQIcF5jSsAp-31" value="&lt;b&gt;&lt;font style=&quot;font-size: 14px;&quot;&gt;No&lt;/font&gt;&lt;/b&gt;" style="edgeLabel;resizable=0;html=1;;align=center;verticalAlign=middle;" connectable="0" vertex="1" parent="WdBLdnIgyOQIcF5jSsAp-30">
          <mxGeometry relative="1" as="geometry" />
        </mxCell>
        <mxCell id="WdBLdnIgyOQIcF5jSsAp-32" value="" style="endArrow=classic;html=1;rounded=0;edgeStyle=orthogonalEdgeStyle;" edge="1" parent="1">
          <mxGeometry relative="1" as="geometry">
            <mxPoint x="287" y="459" as="sourcePoint" />
            <mxPoint x="195" y="561" as="targetPoint" />
          </mxGeometry>
        </mxCell>
        <mxCell id="WdBLdnIgyOQIcF5jSsAp-33" value="&lt;font style=&quot;font-size: 14px;&quot;&gt;&lt;b&gt;Yes&lt;/b&gt;&lt;/font&gt;" style="edgeLabel;resizable=0;html=1;;align=center;verticalAlign=middle;" connectable="0" vertex="1" parent="WdBLdnIgyOQIcF5jSsAp-32">
          <mxGeometry relative="1" as="geometry" />
        </mxCell>
        <mxCell id="WdBLdnIgyOQIcF5jSsAp-35" value="&lt;div style=&quot;font-family: Consolas, &amp;quot;Courier New&amp;quot;, monospace; line-height: 19px; white-space: pre;&quot;&gt;&lt;div style=&quot;&quot;&gt;&lt;span style=&quot;background-color: rgb(255, 255, 255);&quot;&gt;&lt;b style=&quot;&quot;&gt;&lt;font style=&quot;font-size: 14px;&quot;&gt;newArray[count] = array[i]&lt;/font&gt;&lt;/b&gt;&lt;/span&gt;&lt;/div&gt;&lt;div style=&quot;&quot;&gt;&lt;span style=&quot;background-color: rgb(255, 255, 255);&quot;&gt;&lt;b style=&quot;&quot;&gt;&lt;font size=&quot;3&quot;&gt;count++&lt;/font&gt;&lt;/b&gt;&lt;/span&gt;&lt;/div&gt;&lt;/div&gt;" style="rounded=0;whiteSpace=wrap;html=1;" vertex="1" parent="1">
          <mxGeometry x="95" y="562" width="204" height="48" as="geometry" />
        </mxCell>
        <mxCell id="WdBLdnIgyOQIcF5jSsAp-36" value="&lt;b style=&quot;font-size: 14px;&quot;&gt;string[ ] newArray&lt;/b&gt;" style="shape=document;whiteSpace=wrap;html=1;boundedLbl=1;" vertex="1" parent="1">
          <mxGeometry x="329" y="674" width="142" height="60" as="geometry" />
        </mxCell>
        <mxCell id="WdBLdnIgyOQIcF5jSsAp-37" value="" style="endArrow=classic;html=1;rounded=0;" edge="1" parent="1">
          <mxGeometry width="50" height="50" relative="1" as="geometry">
            <mxPoint x="196" y="612" as="sourcePoint" />
            <mxPoint x="330" y="700" as="targetPoint" />
            <Array as="points">
              <mxPoint x="196" y="700" />
            </Array>
          </mxGeometry>
        </mxCell>
        <mxCell id="WdBLdnIgyOQIcF5jSsAp-38" value="" style="endArrow=classic;html=1;rounded=0;" edge="1" parent="1">
          <mxGeometry width="50" height="50" relative="1" as="geometry">
            <mxPoint x="495" y="304" as="sourcePoint" />
            <mxPoint x="447" y="816" as="targetPoint" />
            <Array as="points">
              <mxPoint x="645" y="304" />
              <mxPoint x="641" y="817" />
            </Array>
          </mxGeometry>
        </mxCell>
        <mxCell id="WdBLdnIgyOQIcF5jSsAp-40" value="" style="endArrow=classic;html=1;rounded=0;" edge="1" parent="1">
          <mxGeometry width="50" height="50" relative="1" as="geometry">
            <mxPoint x="401" y="726" as="sourcePoint" />
            <mxPoint x="400" y="790" as="targetPoint" />
          </mxGeometry>
        </mxCell>
        <mxCell id="WdBLdnIgyOQIcF5jSsAp-41" value="&lt;font style=&quot;font-size: 14px;&quot;&gt;&lt;b&gt;End&lt;/b&gt;&lt;/font&gt;" style="ellipse;whiteSpace=wrap;html=1;" vertex="1" parent="1">
          <mxGeometry x="351" y="789" width="97" height="50" as="geometry" />
        </mxCell>
      </root>
    </mxGraphModel>
  </diagram>
</mxfile>
